<?xml version="1.0" encoding="UTF-8" standalone="no"?>
 <svg version="1.1" xmlns="http://www.w3.org/2000/svg" xmlns:xlink="http://www.w3.org/1999/xlink" viewBox="-25 -25 265 100" x="0px" y="0px" className="blog-letters" data-reactid="29"><g data-reactid="30"><path className="floating-delay" d="M8,24 L32,24 L32,32 L8,32 L8,24 Z M0,0 L8,0 L8,48 L0,48 L0,0 Z M32,7 L40,7 L40,23 L32,23 L32,7 Z M8,0 L32,0 L32,8 L8,8 L8,0 Z M32,31 L40,31 L40,41 L32,41 L32,31 Z M8,40 L32,40 L32,48 L8,48 L8,40 Z" fill="#07e" data-reactid="31"></path></g><g data-reactid="32"><path className="floating" d="M64,40 L64,1 L56,1 L56,40.5 L56,48 L88,48 L88,40 L64,40 Z" fill="#07e" data-reactid="33"></path></g><g data-reactid="34"><path className="floating-delay" d="M112,0 L144,0 L144,8 L112,8 L112,0 Z M112,40 L144,40 L144,48 L112,48 L112,40 Z M152,8 L152,40 L144,40 L144,8 L152,8 Z M112,8 L112,40 L104,40 L104,8 L112,8 Z" fill="#07e" data-reactid="35"></path></g><g data-reactid="36"><path className="floating" d="M176,0 L208,0 L208,8 L176,8 L176,0 Z M176,40 L208,40 L208,48 L176,48 L176,40 Z M192,24 L208,24 L208,32 L192,32 L192,24 Z M216,24 L216,40 L208,40 L208,24 L216,24 Z M176,8 L176,40 L168,40 L168,8 L176,8 Z" fill="#07e" data-reactid="37"></path></g></svg>